# xmcd CD database file
#
# Track frame offsets:
#	150
#	23990
#	56635
#	69173
#	84286
#	94307
#	107372
#	121062
#	134580
#	147716
#	161696
#	174207
#	188034
#	203311
#	229772
#	241095
#	258339
#	272385
#
# Disc length: 4010 seconds
#
# Revision: 0
# Processed by: cddbd v1.5.1PL2 Copyright (c) Steve Scherf et al.
# Submitted via: CDex 1.51
#
DISCID=e60fa812
DTITLE=Louis Armstrong&Jack Teagarden - Jazz Ballads 19, CD 2
DYEAR=1900
DGENRE=Jazz
TTITLE0=Stars Fell On Alabama
TTITLE1=A Hundred Years FromToday
TTITLE2=I Gotta Right To Sing the Blues
TTITLE3=Star Dust
TTITLE4=Music To Love By
TTITLE5=Body And Soul
TTITLE6=Love Me
TTITLE7=Blue River
TTITLE8=I Just Couldn't Take It Baby
TTITLE9=Keep On Doin Waht You're Doin
TTITLE10=Your Guess Is Just As Good As Mine
TTITLE11=Diane
TTITLE12=Peg O' My Heart
TTITLE13=If I Could Be With You One Hour Tonight
TTITLE14=Nobody Knows
TTITLE15=Body And Soul
TTITLE16=A Hundred Years From Today
TTITLE17=Stars Fell on Alabama
EXTD=
EXTT0=
EXTT1=
EXTT2=
EXTT3=
EXTT4=
EXTT5=
EXTT6=
EXTT7=
EXTT8=
EXTT9=
EXTT10=
EXTT11=
EXTT12=
EXTT13=
EXTT14=
EXTT15=
EXTT16=
EXTT17=
PLAYORDER=
